<svg id="Layer_1" data-name="Layer 1" xmlns="http://www.w3.org/2000/svg" viewBox="0 0 80 80"><defs><style>.cls-1{fill:#ebebeb;}.cls-2{fill:#febd07;}</style></defs><circle class="cls-1" cx="40" cy="40" r="34.21"/><path class="cls-2" d="M37.31,66.17c.2-2.15.46-4,.51-5.78a32.56,32.56,0,0,0-.19-5.59c-.26-1.78-1-2.36-2.85-2.41-1.34,0-2.68.16-4,.25a13,13,0,0,1-1.87.09c-2.12-.18-3.07-1.81-2.11-3.71.44-.86.82-1.54-.43-2a.53.53,0,0,1-.3-.41c0-1.23,0-2.46,0-3.68l.39-.27c-.64-.2-1.28-.42-1.93-.6-1.23-.32-1.59-1-1-2.17.27-.51.58-1,.9-1.49,1.07-1.61,2.28-3.17,1.36-5.39h27a28.72,28.72,0,0,1-.35,3.41A21.1,21.1,0,0,1,51,41.19c-1.92,4-1.58,8-.54,12,.46,1.76,1.07,3.49,1.66,5.4Z"/><path class="cls-2" d="M26.88,32.65a3.54,3.54,0,0,1,.94-3.54,30.87,30.87,0,0,1,3.48-3.29,18.36,18.36,0,0,1,2.9-1.57c2.1-1.12,4.4-1.13,6.68-1.2a3.38,3.38,0,0,1,1.69.27c2.28,1.3,5,2,6.4,4.57a33.64,33.64,0,0,0,2.57,3.2,2.22,2.22,0,0,1,.28,1.23c0,.11-.48.32-.75.32C43,32.66,35,32.65,26.88,32.65Z"/><path class="cls-2" d="M36.53,21.68c2.34-.88,4.38-1.61,6.38-2.42a6.26,6.26,0,0,0,1.28-1,4.84,4.84,0,0,1,1-.8c2.45-1,4.92-1.86,7.37-2.8.78-.3,1.55-.45,1.91.51s-.31,1.36-1.09,1.65c-2.42.91-4.83,1.83-7.25,2.73-.33.13-.77.33-1,.21-1.35-.67-2.14.17-3,1A4.6,4.6,0,0,1,36.53,21.68Z"/><path class="cls-2" d="M55.38,16.32l-1-2.46a9,9,0,0,1,2,0,1.12,1.12,0,0,1,.42,1A9.08,9.08,0,0,1,55.38,16.32Z"/></svg>