<svg id="Layer_1" data-name="Layer 1" xmlns="http://www.w3.org/2000/svg" viewBox="0 0 68.41 68.41"><defs><style>.cls-1{fill:#ebebeb;}.cls-2{fill:#febd07;}</style></defs><circle class="cls-1" cx="34.21" cy="34.21" r="34.21"/><path class="cls-2" d="M63.23,30a4,4,0,0,1,1.07,2.38c.07.81.2,1.61.24,2.42a1.33,1.33,0,0,1-.33.79,20,20,0,0,0-1.8,2,6.34,6.34,0,0,0-.89,2.3,2.7,2.7,0,0,1-2.75,2.47c-.82-.05-1.09-.33-1.05-1.15s.11-1.72.14-2.57a4.6,4.6,0,0,0-2.74-4.46c-.26-.15-.47-.37-.71-.54-.4-.27-.8-.54-1.21-.78-.22-.13-.49-.2-.72-.31-.46-.22-.7-.5-.48-1.08.82-2-1.44-4.4-3.83-3.76a23.92,23.92,0,0,0-2.74.94c-2.45,1-3.59-.85-3.53-2.53,0-.26,0-.52,0-.86,3.27-.9,4-3.29,3.66-6.33a4,4,0,0,1,4.18,1.7,3.22,3.22,0,0,0,2.72,1.78,1.83,1.83,0,0,1,.93.44.88.88,0,0,1,.17,1.22A34.76,34.76,0,0,0,52,27.5a1.22,1.22,0,0,0,1.26,1.72,28.47,28.47,0,0,1,4,.26,7.88,7.88,0,0,1,2.08.75,9.94,9.94,0,0,1,1.07.66,1.6,1.6,0,0,0,2.37-.45Z" transform="translate(-5.79 -5.79)"/><path class="cls-2" d="M39.78,23.56a15.31,15.31,0,0,1-1.57-1.49A1.34,1.34,0,0,1,38,21a18.92,18.92,0,0,1,.79-2.3.65.65,0,0,1,.36-.26,8.71,8.71,0,0,1,4.5-.26c.42.09.65.28.61.77-.07.89,0,1.8-.14,2.68a3.29,3.29,0,0,1-2.25,2.55c-.22.09-.51.37-.5.55a9.62,9.62,0,0,0,.23,2.41,3,3,0,0,0,3.92,2c1-.3,1.94-.7,2.93-1a2.09,2.09,0,0,1,2.59.92,1.61,1.61,0,0,1,.17.28c.35.8-.32,3.24-1.11,3.56a5.13,5.13,0,0,1-1.93.17c-1.22,0-2.45-.12-3.67-.06a2.59,2.59,0,0,0-2.32,1.81,24.84,24.84,0,0,0-.79,2.58c-.18.67-.24,1.39-.48,2a1,1,0,0,1-.83.52,9,9,0,0,1-1.88-.9c-.13-.08-.17-.39-.2-.6-.23-1.74-.46-3.48-.67-5.23a5.1,5.1,0,0,1,0-1.51,1.14,1.14,0,0,1,.61-.73c1.25-.52,1.52-1.17.85-2.37-.42-.75-.92-1.45-1.32-2.21s-.42-1,.41-1.55C38.52,24.5,39.14,24,39.78,23.56Z" transform="translate(-5.79 -5.79)"/><path class="cls-2" d="M22.11,33.25a1.13,1.13,0,0,1,1.64.4,6.14,6.14,0,0,0,1.17,1.08,3.68,3.68,0,0,1,2.75,0A2.41,2.41,0,0,1,28.75,37a3.38,3.38,0,0,1-.89,2,2.28,2.28,0,0,0-.25,2.48,10.16,10.16,0,0,0,.51,1.1,2.16,2.16,0,0,1-2.1.13,5,5,0,0,0-4.46.69,4.79,4.79,0,0,1-1.83.62,2.93,2.93,0,0,1-1.3-.36c-.53-.2-1-.5-1.58-.65-1.5-.43-2.19-.05-3,1.62a5.34,5.34,0,0,1-.77-2.62,5.43,5.43,0,0,1,.11-1.5c.21-1,.46-2,.73-2.94A1.44,1.44,0,0,1,15,36.42c.23-.05.45-.4.57-.67.3-.68.48-1.42.83-2.08a15.55,15.55,0,0,1,1.41-2.05.68.68,0,0,1,.62-.17,6.47,6.47,0,0,1,2.74,2.11,2.08,2.08,0,0,1-.66,3.27c-.59.38-1.23.68-1.83,1.06-1.39.88-1.43,2.12-.55,3.4a1.4,1.4,0,0,0,1.82.51,22.34,22.34,0,0,0,2.18-1.22c.9-.55,1.76-1.19,2.94-.84.15,0,.42-.28.72-.5a2.23,2.23,0,0,0-2.33-.34,15.51,15.51,0,0,0-2,1c-.48.27-.93.6-1.41.86s-.89.46-1.27-.11a1.33,1.33,0,0,1,0-1.76,6,6,0,0,1,.93-.62c.45-.27.93-.5,1.37-.79a2.86,2.86,0,0,0,1.15-3.84C22.2,33.54,22.16,33.39,22.11,33.25Z" transform="translate(-5.79 -5.79)"/><path class="cls-2" d="M54.61,34.72a3.76,3.76,0,0,1,2.16,2.92,7.81,7.81,0,0,1-.59,4.5,3.82,3.82,0,0,1-3.35,2.24,6.7,6.7,0,0,0-1.55.26,1.7,1.7,0,0,1-1.49-.26,5.24,5.24,0,0,1-2.28-2.73A3.06,3.06,0,0,0,44,39.35a9.5,9.5,0,0,0-1.48.31l-.76.22c.5-1.6.87-3.09,1.42-4.5.41-1.05,1.49-1.11,2.43-1.13a13.51,13.51,0,0,1,2.75.28,2.7,2.7,0,0,0,3.09-1.32,2.93,2.93,0,0,1,.19-.26c.4.18.77.37,1.15.51a1.57,1.57,0,0,1,1,2.15,3,3,0,0,1-4.26,1.92,4.74,4.74,0,0,0-.94-.18c0,.56.49.57.81.7a3.51,3.51,0,0,0,5-2.61C54.48,35.23,54.54,35,54.61,34.72Z" transform="translate(-5.79 -5.79)"/><path class="cls-2" d="M47.42,52.09a7.91,7.91,0,0,1,5.7-3.17,15.84,15.84,0,0,0,2.63-.58,6.53,6.53,0,0,0,3.32-2.17A3.38,3.38,0,0,0,63,47.92a15.27,15.27,0,0,1,0,2.25A5.5,5.5,0,0,1,60,54.36a9.63,9.63,0,0,1-4.5,1.35,9.32,9.32,0,0,1-2.89-.52c-1.26-.38-2.47-.91-3.69-1.4a1.42,1.42,0,0,1-.54-.44C48.08,53,47.77,52.54,47.42,52.09Z" transform="translate(-5.79 -5.79)"/><path class="cls-2" d="M35.86,43.32a5.66,5.66,0,0,1-3.58,1.45,5.22,5.22,0,0,1-4.36-3.62,1.62,1.62,0,0,1,.38-1.46,4.38,4.38,0,0,0,.77-1.63c.12-.47.25-.66.76-.67,1.67,0,3.69-1.45,3.52-3.23-.06-.74,0-1.49,0-2.22A5.58,5.58,0,0,1,35,27.76c.35-.39.67-.81,1-1.23.72,1.24,1.33,2.27,1.93,3.31.21.38.33.71-.24.94-1.29.51-1.66,1.35-1.45,2.78.28,2,.6,3.95.72,5.94a12.94,12.94,0,0,1-.49,2.9Z" transform="translate(-5.79 -5.79)"/><path class="cls-2" d="M38.39,18.85c-.71,1.66-1.74,3.29.48,4.62l-.56.44c-1.3,1-2.68,1.95-3.87,3.08a5.9,5.9,0,0,0-1.79,5.41c.24,1.84-.44,3.27-2.45,3.7-.52.11-.88.11-1.08-.56a2.6,2.6,0,0,0-2.84-2,5.47,5.47,0,0,1-1.56-.19.92.92,0,0,1-.81-.91,1,1,0,0,1,.79-1.07,3.57,3.57,0,0,1,1.22-.07c.68.08,1.34.3,2,.33,2.09.09,3.26-1.07,2.83-3.11a7.66,7.66,0,0,1,1.37-5.86,23.73,23.73,0,0,1,1.52-2.32,4.1,4.1,0,0,1,2.88-1.43A16.34,16.34,0,0,1,38.39,18.85Z" transform="translate(-5.79 -5.79)"/><path class="cls-2" d="M18.54,30.3a8.59,8.59,0,0,1,3.05-4.22c.77-.61,1.53-1.23,2.3-1.86a2.64,2.64,0,0,1,2-.72,1.93,1.93,0,0,0,1.66-.62c.57-.56,1.14-1.11,1.72-1.65a3.08,3.08,0,0,1,2.6-.79c-.16.24-.27.43-.4.62a10.87,10.87,0,0,0-2.08,4.52,1.72,1.72,0,0,0,0,.64,3.8,3.8,0,0,1,0,2.14c-.14.33,0,.77-.06,1.15a1.16,1.16,0,0,1-1.17,1.06c-.88.07-1.75.07-2.63.09a.26.26,0,0,1-.18-.06.8.8,0,0,0-1.2-.2,10.09,10.09,0,0,0-1.29,1.16c-.19.2-.3.67-.46.67A2.84,2.84,0,0,1,20.85,32,20.88,20.88,0,0,1,18.54,30.3Z" transform="translate(-5.79 -5.79)"/><path class="cls-2" d="M35.86,43.32l.6-.92,1-2.38c.35.19.72.42,1.11.6a2.14,2.14,0,0,0,1.91,0,2.59,2.59,0,0,1,.74-.09c.3,0,.61-.07.91-.13.64-.12,1.28-.3,1.92-.37a1.81,1.81,0,0,1,2,1.17,7.08,7.08,0,0,0,3,3.87c-2.16,2.33-4.06,2.89-7-.33a5.47,5.47,0,0,1-3.88,2.92,1.89,1.89,0,0,1-2.44-1.62A17.07,17.07,0,0,1,35.86,43.32Z" transform="translate(-5.79 -5.79)"/><path class="cls-2" d="M48.18,50.17a3.75,3.75,0,0,1,3-4.27c.91-.16,1.83-.26,2.74-.42a4.63,4.63,0,0,0,3-1.86c.19-.26.38-.53.57-.78,2.4,1,4.34.21,5-2,.13-.41.12-.87.25-1.29a7.23,7.23,0,0,1,2.72-3.41c.09-.07.38,0,.5.11a2.33,2.33,0,0,1,.86,2.42,6.1,6.1,0,0,1-2.45,3.78,16.77,16.77,0,0,1,.37,2,1.78,1.78,0,0,1-1,1.74,3.49,3.49,0,0,1-2.55.38,1.52,1.52,0,0,1-1-.86,2.71,2.71,0,0,0-1-1c-.16-.09-.7.16-.82.39-.91,1.74-2.66,1.85-4.26,2.26-.55.14-1.12.22-1.68.31a6.62,6.62,0,0,0-3.83,2.06,3.71,3.71,0,0,1-.29.27S48.29,50.11,48.18,50.17Z" transform="translate(-5.79 -5.79)"/><path class="cls-2" d="M46.45,47.09c0,1.15-.05,2.24-.07,3.32a1.1,1.1,0,0,1-1.07,1.07,4.63,4.63,0,0,0-3.08,1.85,4.18,4.18,0,0,1-.87.7.77.77,0,0,1-.66,0,4.81,4.81,0,0,0-3.06-1,3.67,3.67,0,0,1-.42-.09,4.24,4.24,0,0,0,.15-4.9A6.87,6.87,0,0,0,42,45.4C43.28,46.72,44.75,47.47,46.45,47.09Z" transform="translate(-5.79 -5.79)"/><path class="cls-2" d="M23.69,48.05c-1.73-.28-3.47-.53-5.2-.84a21.55,21.55,0,0,1-2.61-.63,2.12,2.12,0,0,1-1.24-1.85,1.11,1.11,0,0,1,1.53-1.17,6.39,6.39,0,0,1,1.44.64,3.41,3.41,0,0,0,4.12-.15,4.08,4.08,0,0,1,3-.95,3,3,0,0,1,2.06.89c.74.89.42,2.67-.3,3.65a.61.61,0,0,1-.41.16c-.79.06-1.58.1-2.37.14Z" transform="translate(-5.79 -5.79)"/><path class="cls-2" d="M27.2,44c.59-.14,1.07-.32,1.56.09a5.11,5.11,0,0,0,6.12.73,3.93,3.93,0,0,1,.4-.11c-.33,1.54-.27,2.93,1.35,3.81a1.85,1.85,0,0,1-2-.1c-1.19-.63-1.51-.54-2.08.66A2.69,2.69,0,0,1,30,50.73c-.16,0-.34,0-.46,0-.78.45-1.08-.11-1.4-.64-.11-.17-.2-.34-.32-.51a2.27,2.27,0,0,1-.33-2.53A3,3,0,0,0,27.2,44Z" transform="translate(-5.79 -5.79)"/><path class="cls-2" d="M48.87,62c-1.28-3-3.56-5-6.22-6.71a5,5,0,0,1,1.89-1.84,15.51,15.51,0,0,1,2.23-.9.55.55,0,0,1,.46.22,33.15,33.15,0,0,1,3.14,6.38C50.82,60.66,50.41,61.51,48.87,62Z" transform="translate(-5.79 -5.79)"/><path class="cls-2" d="M62.29,28.9c-1.06,1.18-1.12,1.22-2.2.42a7.2,7.2,0,0,0-4.45-1.39H52.77a4.27,4.27,0,0,1,.15-1.08c.46-1,1-2.07,1.48-3.08a.58.58,0,0,1,.51-.21,5.73,5.73,0,0,1,4.74,3.62c.08.2.35.36.56.49C60.87,28.08,61.55,28.47,62.29,28.9Z" transform="translate(-5.79 -5.79)"/><path class="cls-2" d="M29.45,51.46a3.89,3.89,0,0,0,4-2.93,3.4,3.4,0,0,0,3.44.56A3.13,3.13,0,0,1,36,53.3a.31.31,0,0,1-.12.05c-2.23.11-4.48.25-6.21-1.59A2.6,2.6,0,0,1,29.45,51.46Z" transform="translate(-5.79 -5.79)"/></svg>