<svg id="Layer_1" data-name="Layer 1" xmlns="http://www.w3.org/2000/svg" viewBox="0 0 80 80"><defs><style>.cls-1{fill:#ebebeb;}.cls-2{fill:#febd07;}</style></defs><circle class="cls-1" cx="40" cy="40" r="34.21"/><path class="cls-2" d="M21.3,65a2.85,2.85,0,0,1-.93-2.41c0-6.91,0-13.82,0-20.73A5.64,5.64,0,0,1,20.67,40c1.58-4.7,3.21-9.38,4.81-14.07a5.53,5.53,0,0,1,3.36-3.61c1.44-.55,1.51-.49,2.11,1.21-2.64,0-3.75,1.74-4.51,4.13-1.27,4-2.72,8-4.09,12-.16.47-.3.94-.48,1.52L31,44.71c.7-2.21,1.4-4.35,2-6.51.06-.19-.23-.56-.44-.77a23.19,23.19,0,0,1-1.74-1.69,3.74,3.74,0,0,1-.4-1.36c.44.07,1,0,1.32.23,2.49,2.24,4.94,4.54,7.4,6.83.2.19.39.48.62.55a5,5,0,0,0,1.17.09c-.06-.4,0-.95-.19-1.19-1-1.08-2-2.08-3.08-3.11-2.32-2.31-4.66-4.61-6.94-7-.31-.32-.61-1.16-.44-1.41.51-.75,1-.11,1.44.31,1,1,1.95,1.93,3,3,.69-2.26,2-4.28.52-6.68l1.48-.3a5.25,5.25,0,0,1,.52,3.9,19.92,19.92,0,0,1-.92,3,1.74,1.74,0,0,0,.58,2.32c1.25,1.13,2.41,2.38,3.76,3.74a12.67,12.67,0,0,1,.45-1.61c.22-.51.58-1,.83-1.44a2,2,0,0,0,.22-.8c.16-2.07.24-4.15.46-6.22.25-2.29.87-4.41,3.23-5.54l.75,1.33c-2,.9-2.35,2.78-2.53,4.72-.2,2.11-.29,4.24-.47,6.35a2.69,2.69,0,0,1-.49,1.34,3.61,3.61,0,0,0-.65,4,2.17,2.17,0,0,0,1,.93c1.2.58,2.44,1.06,3.65,1.6.8.35,1.57.79,2.38,1.1,2.29.88,4.6,1.72,7.09,2.65l-.49-2.66c-2,.54-2.45.35-3.66-1.36l-6.25-8.79c-.12-.16-.32-.32-.34-.5a11.45,11.45,0,0,1,0-1.31c.39.13.94.14,1.16.43,1.56,2.09,3.06,4.24,4.57,6.37.71,1,1.43,2,2.13,3,.39.56.83,1.23,1.48.62.21-.2,0-1.15-.23-1.59-2.33-3.91-4.72-7.78-7.09-11.66a2.6,2.6,0,0,1-.48-.85,3.66,3.66,0,0,1,.2-1.1,3.08,3.08,0,0,1,1,.31,3.18,3.18,0,0,1,.6.92l4.68,7.66a2.32,2.32,0,0,0,.85.89c-.72-3.6-1.45-7.2-2.21-10.94l1.19-.64c.25.85.54,1.6.7,2.38,1.17,5.77,2.31,11.55,3.47,17.33.49,2.43,0,3-2.37,2.95.52,4,1,8.07,1.57,12.16l.71.11a2,2,0,0,1,1.77,1.73,2,2,0,0,1-1.19,2.22A3.3,3.3,0,0,0,58,65H53.28a10.13,10.13,0,0,1-1-1.88c-.9-3-1.72-6-2.57-9-.13-.45-.29-.89-.43-1.34-.55,2.38-.92,4.71-1.23,7.05a1.42,1.42,0,0,0,.44,1.06c1.63,1.32,1.68,2.88.07,4.15H46.88c-.84-.31-1.67-.64-2.53-.91-1.79-.57-2.13-1-2.13-3,0-5.5,0-11,0-16.49,0-.42,0-.85-.06-1.33-1.85,1-2.38.89-3.84-.47-1.29-1.2-2.57-2.4-4-3.71-.6,1.89-1.18,3.56-1.65,5.27a4.11,4.11,0,0,0-.05,1.91c.64,2.75,1.36,5.47,2.06,8.2.42,1.67.86,3.34,1.29,5,1.91-.27,3,.27,3.26,1.6.24,1.09-.35,1.75-2.15,2.47-1.16.46-2.31,1-3.46,1.48H32.44a8.66,8.66,0,0,1-1.15-1.66c-1-2.58-1.91-5.2-2.86-7.8l-1.15-3.15-1.48,8c1.44.15,2.44.71,2.69,2.25A2,2,0,0,1,27.23,65Zm.63-22V63.44h5c.22-1.36-.56-1.45-1.47-1.46-1.29,0-1.48-.25-1.24-1.54.38-2,.59-4.13,1.16-6.1a12.92,12.92,0,0,0-.71-9.23A3.51,3.51,0,0,0,21.93,43Zm21.79.17v1.79q0,6.93,0,13.86c0,3.81.27,4.12,3.95,4.5.18,0,.37-.12.72-.23-.3-.38-.46-.78-.69-.84-1.63-.41-1.35-1.58-1.15-2.82.69-4.22,1.33-8.45,2-12.68,0-.34.06-.93-.12-1C47,44.84,45.49,44.09,43.72,43.13ZM37.77,61.5,37.69,61a4.11,4.11,0,0,0-1.36,0c-1.11.42-1.54,0-1.82-1.14-1-4.23-2.13-8.43-3.23-12.64-.1-.36-.28-.87-.54-1-1.49-.63-3-1.15-4.72-1.79l6.89,19Zm20.37,1.63,0-.5c-.24-.09-.49-.29-.72-.26-1.3.15-1.65-.52-1.79-1.79-.44-4-1-8-1.57-12a1.47,1.47,0,0,0-.5-1c-1.08-.47-2.21-.82-3.66-1.34a19.75,19.75,0,0,0,.22,3.6c.92,3.61,2,7.18,3,10.77.79,2.79.79,2.81,3.61,2.75A9.44,9.44,0,0,0,58.14,63.13Z"/><path class="cls-2" d="M39.62,19.62c-.06,2.7-2,4.81-4.37,4.74-2.15-.07-3.81-2.11-3.75-4.6C31.57,17.1,33.56,15,35.89,15,38,15.07,39.67,17.1,39.62,19.62Zm-1.48-.1c0-1.66-1.07-3-2.4-3A3.23,3.23,0,0,0,33,19.86a2.68,2.68,0,0,0,2.44,2.93A3,3,0,0,0,38.14,19.52Z"/><path class="cls-2" d="M47.07,20.73c0-2.73,2-5,4.35-5,2.11,0,3.77,2,3.75,4.43,0,2.7-2,5-4.36,5C48.7,25.17,47.06,23.22,47.07,20.73Zm1.46,0c0,1.6.94,2.79,2.23,2.82a3.18,3.18,0,0,0,3-3.36,2.64,2.64,0,0,0-2.25-2.85C49.91,17.29,48.54,18.87,48.53,20.74Z"/><path class="cls-2" d="M38.47,47.13c.5-.6.8-1.3,1.16-1.34.85-.08.78.75.75,1.36s.3,1.73-.74,1.73C39.3,48.88,39,47.88,38.47,47.13Z"/><path class="cls-2" d="M38.12,45.25c0,.87-2,2.26-2.45,1.91a1.29,1.29,0,0,1-.36-.89,15.5,15.5,0,0,1,2.19-1.51C37.61,44.69,38,45.13,38.12,45.25Z"/></svg>