<svg id="Layer_1" data-name="Layer 1" xmlns="http://www.w3.org/2000/svg" viewBox="0 0 80 80"><defs><style>.cls-1{fill:#ebebeb;}.cls-2{fill:#febd07;}</style></defs><circle class="cls-1" cx="40" cy="40" r="34.21"/><path class="cls-2" d="M30.47,63.65A21.92,21.92,0,0,0,29.91,60,30.53,30.53,0,0,1,28.56,43.7a24.09,24.09,0,0,0,.05-5c-2.28,2-4.35,4-6.56,5.75a3.38,3.38,0,0,1-2.47.58c-1-.22-1.15-1.31-.8-2.15a12.33,12.33,0,0,1,1.73-3,27.57,27.57,0,0,0,4.59-8.28c1.84-5.23,6.89-6.76,11.37-3.4s6.14,8.16,5.74,13.59a6.19,6.19,0,0,1-3.38,4.81c-3.11,1.81-3.73,4.54-3.55,7.76.14,2.52.15,5,.15,7.58,0,1.16-.49,1.85-1.9,1.67A21.19,21.19,0,0,0,30.47,63.65ZM40.69,40c-.18-3.39-1.08-6.58-3.51-9.06a22.33,22.33,0,0,0-4.4-3c-.22-.13-.72.18-1.1.29.22.31.37.8.67.91,3.74,1.43,5.59,4.35,6.53,7.93.3,1.15.24,2.37.44,3.55.06.32.46.59.71.88a5.17,5.17,0,0,0,.65-.83A1.81,1.81,0,0,0,40.69,40Zm-5.33-5.17c.47-.67,1-1.12.94-1.42s-.67-.73-1-1.08c-.34.38-.88.73-.94,1.15S34.84,34.16,35.36,34.79Zm2.91,1.38c-.81-.51-1.24-1-1.66-1s-1,.65-1,.88a1.57,1.57,0,0,0,1,1.06C37,37.19,37.46,36.67,38.27,36.17Zm.88,3.16c-.82-.49-1.3-1-1.68-.94s-.7.68-1,1c.36.31.71.88,1.07.88S38.34,39.84,39.15,39.33Zm-6.26-9.6c-.59.76-1.17,1.18-1.14,1.54a1.56,1.56,0,0,0,1,1c.28.06,1-.52,1-.86S33.37,30.56,32.89,29.73Z"/><path class="cls-2" d="M40.44,47.49c.16.85.26,1.68.47,2.49.74,2.87,1.61,5.71,2.26,8.6,1.07,4.73,0,5.73-5.11,4.89,1.78-1.44.7-2.75-.12-4-1.65-2.62-1.65-5.45-1.07-8.31A5.24,5.24,0,0,1,40.44,47.49Z"/><path class="cls-2" d="M25.25,27.25a4.53,4.53,0,0,1-4.66-4.38,4.6,4.6,0,0,1,9.2-.12A4.55,4.55,0,0,1,25.25,27.25Z"/><path class="cls-2" d="M54.28,38.64a3.4,3.4,0,0,0-.48-.29c-1.21-.43-1.92-1.18-1.56-2.51.28-1.07,1.2-1.34,2.75-1.09a14.13,14.13,0,0,0,2.76,0c.54,0,1.07-.15,1.61-.17a1.7,1.7,0,0,1,2,1.6,1.73,1.73,0,0,1-1.74,2.06c-1.8.17-3.61.22-5.41.32Zm-.72-2.45-.12.39a6.05,6.05,0,0,0,1.8.63,26,26,0,0,0,3.63-.31,3.78,3.78,0,0,0,1.1-.55A4.83,4.83,0,0,0,58.84,36c-1.59,0-3.19,0-4.78,0A1.5,1.5,0,0,0,53.56,36.19Z"/><path class="cls-2" d="M53.5,26c-2.27,0-3.29-.72-3.3-1.9s.8-1.6,2.43-1.88A16.66,16.66,0,0,0,56.05,21c1.52-.61,2.61-.36,3.09.77s-.11,2-1.69,2.61S54.41,25.62,53.5,26Zm-1.91-1.9c.12.17.18.33.29.38.87.32,5.33-.94,5.84-1.67a.55.55,0,0,0,0-.51c-.14-.13-.43-.28-.59-.22C55.34,22.7,53.52,23.37,51.59,24.08Z"/><path class="cls-2" d="M54.23,38.59c1.05.25,2.08.56,3.14.74.76.12,1.67-.15,2.29.17a2.54,2.54,0,0,1,1.26,1.78c0,.55-.81,1.57-1.3,1.58a28.75,28.75,0,0,1-6.08-.32A2,2,0,0,1,51.83,40c.39-1.18,1.37-1.38,2.45-1.37ZM57,41.78l0-.2a9.67,9.67,0,0,0,1.32,0,9.32,9.32,0,0,0,1.22-.35,4.25,4.25,0,0,0-1.15-.53c-1.47-.22-3-.37-4.44-.51a2.65,2.65,0,0,0-.77.16c.13.26.22.72.41.77C54.73,41.38,55.87,41.56,57,41.78Z"/><path class="cls-2" d="M51.33,22.19c-1.49-.25-2.52-1-2.51-2.08,0-1.26.78-1.73,2-2a14.63,14.63,0,0,0,3.48-1.39c1.61-.77,2.68-.63,3.25.56s0,2-1.55,2.69S52.9,21.46,51.33,22.19ZM50.18,19.9l0,.45a6.41,6.41,0,0,0,2,0,27.25,27.25,0,0,0,3.4-1.64c.28-.15.46-.5.68-.75a3,3,0,0,0-1.11-.07c-1.5.52-3,1.11-4.45,1.68A3,3,0,0,0,50.18,19.9Z"/><path class="cls-2" d="M54.87,30.14c-2.29,0-3.24-.67-3.27-1.87a1.8,1.8,0,0,1,1.71-1.95c1.46-.28,2.93-.54,4.36-.93s2.63-.1,3,1.08-.35,2-1.82,2.41S55.81,29.84,54.87,30.14ZM54.15,29c1.55-.52,2.93-1,4.28-1.45.33-.12.56-.48.83-.73a3.51,3.51,0,0,0-1.14-.13c-1.31.3-2.61.67-3.9,1-.41.11-.81.28-1.21.42Z"/><path class="cls-2" d="M58.1,47.94a43.41,43.41,0,0,1-4.47-.57,4.82,4.82,0,0,1-2.36-1.3,2.17,2.17,0,0,1-.16-2A2.34,2.34,0,0,1,53,43.19c1.76.22,3.49.72,5.24,1.1a1.75,1.75,0,0,1,1.6,2.16A1.68,1.68,0,0,1,58.1,47.94Zm-5.81-3.28c-.24,1,.77,1.21,1.45,1.36a27.43,27.43,0,0,0,3.75.45,3.2,3.2,0,0,0,1-.26c-.3-.22-.57-.58-.89-.65C55.87,45.23,54.18,45,52.29,44.66Z"/><path class="cls-2" d="M55.57,33.81c-.67-.08-1.07-.1-1.45-.19-.82-.19-1.54-.54-1.31-1.55s.95-.83,1.73-.87c1.25-.07,2.49-.34,3.74-.53.84-.13,1.85-.6,2.21.61S59.9,32.7,59,32.92C57.76,33.22,56.55,33.56,55.57,33.81Z"/><path class="cls-2" d="M45.17,39.26c-.4,0-.67.08-.88,0a5.31,5.31,0,0,1-.84-.59c.26-.23.57-.68.78-.64,1.7.33,2-.87,2.46-2a22.18,22.18,0,0,0,1-2.37c.44-1.63,1.6-1.9,3-1.68.33.06.6.44.9.68-.29.19-.61.59-.86.55-1.29-.21-1.67.6-2,1.53s-.87,1.92-1.22,2.91C47.09,38.83,46.41,39.54,45.17,39.26Z"/></svg>