<svg id="Layer_1" data-name="Layer 1" xmlns="http://www.w3.org/2000/svg" viewBox="0 0 80 80"><defs><style>.cls-1{fill:#ebebeb;}.cls-2{fill:#febd07;}</style></defs><circle class="cls-1" cx="40" cy="40" r="34.21"/><path class="cls-2" d="M53.75,31.6c.3,1,.64,2,.89,3a16.12,16.12,0,0,1,.3,4.6,3.2,3.2,0,0,0,.24,1.44c.69,1.51,1.46,3,2.2,4.47.16.3.33.6.49.91a.71.71,0,0,1-.28,1c-.52.33-1,.66-1.57,1a.48.48,0,0,0-.29.58c0,.06,0,.12,0,.18a1.59,1.59,0,0,1-.85,2.1.52.52,0,0,0-.1.48A1.19,1.19,0,0,1,54.41,53a.76.76,0,0,1-.09.09,2,2,0,0,0-.79,2.12A2.49,2.49,0,0,1,52,57.78a4.52,4.52,0,0,1-2.64.34,4.51,4.51,0,0,0-.53-.07,1.53,1.53,0,0,0-1.92,1.59c0,.39,0,.78-.06,1.17A2.11,2.11,0,0,1,44.65,63H32.19a2,2,0,0,1-2-2.51c.29-1.64.52-3.28.78-4.92a.59.59,0,0,0-.35-.71A3.07,3.07,0,0,1,29,52.28a2.1,2.1,0,0,0-.39-1.11,24.84,24.84,0,0,1-4.06-8.94A13.57,13.57,0,0,1,26,32.07c.21-.36.39-.48.83-.33a38,38,0,0,0,7.84,1.5,54.56,54.56,0,0,0,8.67.16,42.33,42.33,0,0,0,10.11-1.74Z"/><path class="cls-2" d="M25.08,21.56l1.23,1c-.26.12-.6.23-.9.4a17.92,17.92,0,0,0-2.19,1.32c-1.14.89-1.12,1.65,0,2.58a10.78,10.78,0,0,0,3.28,1.74,3.86,3.86,0,0,0,1.66.48c.48-.07.87-.64,1.32-1,5.32-4,11.11-5.17,17.44-2.8a12,12,0,0,1,4.87,3.45.54.54,0,0,0,.68.19,14.46,14.46,0,0,0,3.87-1.78,5.27,5.27,0,0,0,.87-.77,1.06,1.06,0,0,0,0-1.7,7.93,7.93,0,0,0-1.55-1.2c-.64-.38-1.34-.66-1.89-.92l1.18-1.05a7.84,7.84,0,0,1,3.75,2.75,2.42,2.42,0,0,1-.31,3,7.52,7.52,0,0,1-2.55,1.88,24.38,24.38,0,0,1-6.71,2.06A51,51,0,0,1,37,32a37.22,37.22,0,0,1-11.22-2.07,24,24,0,0,1-3.15-1.62,4.28,4.28,0,0,1-1-.93,2.53,2.53,0,0,1,0-3.55A9,9,0,0,1,25.08,21.56Z"/><path class="cls-2" d="M38.54,20.72a1,1,0,0,1,0-.18,1.13,1.13,0,0,0-.44-1.4.7.7,0,0,1-.23-.58c0-.12.32-.26.5-.27a1.12,1.12,0,0,0,1.17-.88c.06-.18.29-.42.44-.42s.37.24.44.42a1.11,1.11,0,0,0,1.13.87c.19,0,.51.17.53.3a.77.77,0,0,1-.26.6,1.12,1.12,0,0,0-.43,1.33c.06.2-.07.46-.11.7-.22,0-.5,0-.66-.14-.51-.42-.93-.21-1.41.07S38.52,21.25,38.54,20.72Z"/><path class="cls-2" d="M30.31,22.57c-.67-.44-1.28-.11-1.88.43a.34.34,0,0,1-.55-.33,1.45,1.45,0,0,0-1-1.56c-.36-.17-.31-.48,0-.68a.31.31,0,0,1,.12-.05,1.19,1.19,0,0,0,1.05-1.18c.07-.52.42-.59.78-.22a.91.91,0,0,1,.18.21.87.87,0,0,0,1.07.47,1.35,1.35,0,0,1,.45,0c.35,0,.46.25.33.57a.3.3,0,0,1,0,.08A1.27,1.27,0,0,0,30.75,22C31,22.33,30.78,22.56,30.31,22.57Z"/><path class="cls-2" d="M49.94,19.64c.4.18.68-.05.91-.38a1.49,1.49,0,0,1,.23-.28c.35-.36.63-.29.78.18a.09.09,0,0,1,0,.05,1.12,1.12,0,0,0,1,1.16.63.63,0,0,1,.41.4c0,.12-.17.36-.32.42a1.28,1.28,0,0,0-.83,1.37c0,.52-.32.64-.74.33a1.24,1.24,0,0,1-.18-.14A.91.91,0,0,0,50,22.49a1.36,1.36,0,0,1-.35.07c-.41.05-.63-.18-.44-.52a1.41,1.41,0,0,0-.13-1.78c-.26-.32-.06-.6.37-.62Z"/><path class="cls-2" d="M32.2,21.09l.31-1.48a24,24,0,0,0,3-.35c.91-.21,1.19.39,1.57.91.07.1,0,.28,0,.41Z"/><path class="cls-2" d="M47.47,19.61l.32,1.47-5-.5c.09-.21.16-.39.23-.57s.05-.05.06-.07c.25-.79.86-.73,1.5-.65C45.57,19.41,46.55,19.51,47.47,19.61Z"/></svg>