<svg id="Layer_1" data-name="Layer 1" xmlns="http://www.w3.org/2000/svg" viewBox="0 0 80 80"><defs><style>.cls-1{fill:#ebebeb;}.cls-2{fill:#febd07;}</style></defs><circle class="cls-1" cx="40" cy="40" r="34.21"/><path class="cls-2" d="M36.18,48.44c-2.17,0-4.33,0-6.49,0-1,0-1.34-.4-1.27-1.37a70.18,70.18,0,0,0,0-10.15,1,1,0,0,1,1.11-1.26c4.46-.09,8.92-.15,13.38-.21A1,1,0,0,1,44,36.63c0,3.59,0,7.17,0,10.76,0,.87-.36,1.27-1.25,1.28H36.18Z"/><path class="cls-2" d="M36.12,49.52c2.09,0,4.19,0,6.28,0,1.35,0,1.65.4,1.56,1.77-.16,2.56-.31,5.11-.44,7.67,0,.82,0,1.65,0,2.47,0,1-.44,1.45-1.39,1.28a48.7,48.7,0,0,0-12.93-.44c-.84.09-1.26-.42-1.22-1.33.13-2.94.26-5.88.37-8.81,0-.51,0-1-.05-1.54,0-.88.35-1.27,1.24-1.27h6.55Z"/><path class="cls-2" d="M36.1,34.77c-2.12,0-4.24,0-6.35,0-1.11,0-1.48-.39-1.41-1.51a63.24,63.24,0,0,0-.23-10c-.11-1.13.3-1.57,1.45-1.46a45.85,45.85,0,0,0,8.61.13c1.33-.12,2.65-.29,4-.47,1.06-.15,1.57.27,1.51,1.36a67.88,67.88,0,0,0,.27,10.28c.11,1.08-.24,1.47-1.35,1.47-2.16,0-4.32,0-6.48,0Z"/><path class="cls-2" d="M46.78,49c.13.26.2.34.2.41a4.36,4.36,0,0,0,2.33,3.39c1.75,1.07,3.47,2.19,5.19,3.31a8.7,8.7,0,0,0,3.17,1.15,8.37,8.37,0,0,1,2.64.87,3.49,3.49,0,0,1,1.16,4.79,3.35,3.35,0,0,1-4.75,1,14.26,14.26,0,0,1-2-2.06,14.22,14.22,0,0,0-2-2.05,30.83,30.83,0,0,0-4.3-2.43,19.76,19.76,0,0,0-3.31-1c-.45-.12-.67-.31-.63-.77.1-1.34.19-2.67.3-4a.65.65,0,0,1,.11-.37C45.47,50.5,46.08,49.81,46.78,49Z"/><path class="cls-2" d="M44.47,25.47a3.75,3.75,0,0,0,0-.67c-.26-1.52.55-2.59,1.51-3.59.35-.37.6-.31.73.2A4.28,4.28,0,0,0,49,24.2c1.86,1,3.7,2.05,5.55,3.09a8.49,8.49,0,0,0,3.24.95,8.26,8.26,0,0,1,2.61.69,3.5,3.5,0,0,1,1.52,4.69,3.37,3.37,0,0,1-4.79,1.25,7.53,7.53,0,0,1-2-1.82,7.93,7.93,0,0,0-2.77-2.35l-3.06-1.51a10.69,10.69,0,0,0-4.17-1.11c-.52,0-.71-.23-.69-.74s0-1.24,0-1.87Z"/><path class="cls-2" d="M62.41,46.2a3.41,3.41,0,0,1-3.9,3.59,3.84,3.84,0,0,1-2.89-1.74,8.73,8.73,0,0,0-4.25-3.67c-1.15-.53-2.27-1.14-3.36-1.78a4.45,4.45,0,0,0-2.44-.5c-.82,0-.93-.11-.91-.92,0-1.2.07-2.4.16-3.6a1.84,1.84,0,0,1,.34-.9c.55-.71.56-.63,1.27-.08a29.16,29.16,0,0,0,2.75,1.76c1.72,1,3.49,2,5.18,3.06a7.32,7.32,0,0,0,3.94,1.25,4.44,4.44,0,0,1,2.76,1A3.32,3.32,0,0,1,62.41,46.2Z"/><path class="cls-2" d="M54.35,17.94a7.35,7.35,0,0,1-.59,1.38C52.88,20.63,52,21.91,51,23.19a.93.93,0,0,1-1.43.34c-2.37-1.21-2.8-3.31-1.11-5.38.51-.62,1-1.25,1.54-1.85a2.46,2.46,0,0,1,2.76-.62A2.75,2.75,0,0,1,54.35,17.94Z"/><path class="cls-2" d="M46.62,35.33a4.15,4.15,0,0,1,.41-.8c1-1.18,2-2.34,3-3.48.12-.14.41-.29.54-.23A8.72,8.72,0,0,1,54,33a.65.65,0,0,1,0,1c-1,1.27-2,2.55-2.9,3.84-.24.33-.46.43-.83.2-1-.6-2-1.14-2.92-1.76A3.73,3.73,0,0,1,46.62,35.33Z"/><path class="cls-2" d="M47.71,49.05a9.27,9.27,0,0,1,.79-1.79,13.57,13.57,0,0,1,1.66-1.82c.16-.17.52-.34.69-.26A6.92,6.92,0,0,1,54,47.25a.84.84,0,0,1,0,1.18c-1,1.16-1.92,2.34-2.86,3.53a.83.83,0,0,1-1.26.2A3.9,3.9,0,0,1,47.71,49.05Z"/><path class="cls-2" d="M17.59,49.38a9.19,9.19,0,0,1,2.51-6.29c.31-.33.64-.6,1.11-.32s.54.81,0,1.35a7.55,7.55,0,0,0-2.09,4.72,7.69,7.69,0,0,0,2,5.89,1.42,1.42,0,0,1,.38.8c0,.22-.29.6-.47.62a1.22,1.22,0,0,1-.93-.3,9,9,0,0,1-2.58-6.07C17.58,49.65,17.59,49.52,17.59,49.38Z"/><path class="cls-2" d="M20.89,27.38c.26.24.57.39.63.61a1.26,1.26,0,0,1-.17.84,18.81,18.81,0,0,0-1.56,2.39,7.49,7.49,0,0,0,1.26,8.18c.64.78.72,1.07.29,1.46s-.82.28-1.49-.48A9.28,9.28,0,0,1,20.09,28,6,6,0,0,1,20.89,27.38Z"/><path class="cls-2" d="M20.51,34.2A6.35,6.35,0,0,1,22.21,30c.35-.39.78-.59,1.21-.18s.28.81-.07,1.22a4.77,4.77,0,0,0,0,6.56c.35.41.51.83.07,1.23s-.85.2-1.22-.19A6.41,6.41,0,0,1,20.51,34.2Z"/><path class="cls-2" d="M23,44.65c.22.18.56.32.61.53a1.5,1.5,0,0,1-.17.91,14.9,14.9,0,0,0-1.22,2.47,4.38,4.38,0,0,0,1.1,4.09c.06.07.13.13.18.2a.74.74,0,0,1,0,1.08.75.75,0,0,1-1.13,0,6.41,6.41,0,0,1,0-8.87A3.89,3.89,0,0,1,23,44.65Z"/><path class="cls-2" d="M23.46,49.45a3.3,3.3,0,0,1,.89-2.31A.74.74,0,0,1,25.47,47a.76.76,0,0,1,.07,1.13,1.84,1.84,0,0,0,0,2.65.75.75,0,0,1-.05,1.13.76.76,0,0,1-1.13-.14A3.28,3.28,0,0,1,23.46,49.45Z"/><path class="cls-2" d="M25.06,31.59c.2.15.49.26.57.46a1,1,0,0,1,0,.8,2.07,2.07,0,0,0,0,2.91,1,1,0,0,1-.15,1,1,1,0,0,1-.94,0c-1.38-1-1.36-3.88,0-4.88A3,3,0,0,1,25.06,31.59Z"/></svg>